<svg width="20" height="20" viewBox="0 0 20 20" fill="none" xmlns="http://www.w3.org/2000/svg">
<path d="M1.23519 14.6132L1.2341 14.6138C0.42458 13.2805 -0.00237394 11.7501 9.9282e-06 10.1903C9.9282e-06 7.19015 1.54726 4.5523 3.88723 3.02905L7.41219 8.58791H1.23519V14.6132Z" fill="#066916"/>
<path d="M0.598633 7.04455C1.25369 5.39843 2.40284 3.99579 3.8879 3.02966L7.55689 8.81548L8.47073 9.25031V10.2569L1.23532 14.6133V7.04455H0.598633Z" fill="#0B822C"/>
<path d="M3.88722 2.01477C1.54725 3.53692 0 6.17532 0 9.17544C0 10.7947 0.45119 12.3092 1.23409 13.5995L8.47005 9.24145L3.88722 2.01477Z" fill="#10AF0E"/>
<path d="M5.82285 3.57004C5.81685 3.1745 5.8234 2.75549 5.8234 2.41178C6.6614 2.27921 6.42571 2.85315 6.58993 2.77404C7.74734 2.21464 9.01652 1.92495 10.302 1.92677C15.0163 1.92677 18.8386 5.74852 18.8386 10.4634C18.8386 15.1782 15.0169 19 10.302 19C7.32482 19 4.70388 17.4762 3.17627 15.1657V14.0151L4.53912 13.9605L10.236 10.5299L5.82285 3.57004Z" fill="#D4970F"/>
<path d="M5.8294 2.37595C7.21267 1.47548 8.82825 0.99737 10.4788 1.00001C15.1931 1.00001 19.0154 4.82176 19.0154 9.53662C19.0154 14.2515 15.1936 18.0732 10.4788 18.0732C7.38374 18.0732 4.67333 16.4261 3.17627 13.9601L10.4122 9.60209L5.8294 2.37595Z" fill="#FDDC00"/>
</svg>
